<?xml version="1.0" encoding="UTF-8"?>
<svg xmlns="http://www.w3.org/2000/svg" xmlns:xlink="http://www.w3.org/1999/xlink" width="10px" height="10px" viewBox="0 0 10 10" version="1.1">
<g id="surface1">
<path style=" stroke:none;fill-rule:nonzero;fill:rgb(0%,0%,0%);fill-opacity:1;" d="M 7.9375 7.804688 C 7.566406 6.890625 6.671875 6.25 5.625 6.25 L 4.375 6.25 C 3.328125 6.25 2.433594 6.890625 2.0625 7.804688 C 1.367188 7.074219 0.9375 6.085938 0.9375 5 C 0.9375 2.757812 2.757812 0.9375 5 0.9375 C 7.242188 0.9375 9.0625 2.757812 9.0625 5 C 9.0625 6.085938 8.632812 7.074219 7.9375 7.804688 Z M 7.15625 8.445312 C 6.53125 8.835938 5.792969 9.0625 5 9.0625 C 4.207031 9.0625 3.46875 8.835938 2.84375 8.445312 C 2.984375 7.726562 3.617188 7.1875 4.375 7.1875 L 5.625 7.1875 C 6.382812 7.1875 7.015625 7.726562 7.15625 8.445312 Z M 5 10 C 7.761719 10 10 7.761719 10 5 C 10 2.238281 7.761719 0 5 0 C 2.238281 0 0 2.238281 0 5 C 0 7.761719 2.238281 10 5 10 Z M 5 4.6875 C 4.570312 4.6875 4.21875 4.335938 4.21875 3.90625 C 4.21875 3.476562 4.570312 3.125 5 3.125 C 5.429688 3.125 5.78125 3.476562 5.78125 3.90625 C 5.78125 4.335938 5.429688 4.6875 5 4.6875 Z M 3.28125 3.90625 C 3.28125 4.855469 4.050781 5.625 5 5.625 C 5.949219 5.625 6.71875 4.855469 6.71875 3.90625 C 6.71875 2.957031 5.949219 2.1875 5 2.1875 C 4.050781 2.1875 3.28125 2.957031 3.28125 3.90625 Z M 3.28125 3.90625 "/>
</g>
</svg>
