<svg width="19" height="17" viewBox="0 0 19 17" fill="none" xmlns="http://www.w3.org/2000/svg">
<path fill-rule="evenodd" clip-rule="evenodd" d="M18.935 3.93199L16.812 11.887C16.743 12.146 16.508 12.327 16.24 12.327H5.884C5.876 12.325 5.868 12.325 5.862 12.327C4.532 12.328 3.656 12.821 3.182 13.837C3.82 14.51 2.868 14.178 2.645 14.178C2.561 14.178 2.476 14.16 2.395 14.122C2.98 13.983 1.97 13.631 2.109 13.335C2.688 12.95 3.736 11.361 5.162 11.184L4.107 5.79299C4.45 5.47199 4.254 5.15999 4.575 5.96999C4.896 5.30999 5.206 5.245 5.27 5.565L6.362 11.143H15.785L17.591 4.37199H4.314C4.305 4.37199 4.297 4.37199 4.289 4.37199C2.161 4.37199 0.320999 2.788 0.599999 0.678996C-0.0430014 0.354996 0.179998 0.539995 0.503998 0.599995C0.818998 -0.0490048 1.129 0.179994 1.177 0.504994C1.406 2.35999 2.744 3.186 4.293 3.186C4.298 3.186 4.305 3.186 4.31 3.186H18.363C18.547 3.186 18.72 3.27199 18.832 3.41799C18.945 3.56499 18.983 3.75499 18.935 3.93199ZM5.527 12.83C5.529 12.83 5.53 12.83 5.532 12.83C6.83 12.83 6.602 13.44 6.993 13.433C7.385 13.826 7.601 14.345 7.601 14.899C7.603 15.74 7.102 16.493 6.325 16.816C6.66 16.925 5.795 16.977 5.526 16.977C4.989 16.977 4.462 16.767 4.64 16.371C3.468 15.777 3.29 14.89 3.612 14.11C3.934 13.334 4.685 12.83 5.527 12.83ZM4.901 15.532C5.156 15.786 5.537 15.862 5.869 15.724C6.203 15.584 6.417 15.261 6.417 14.9C6.417 14.663 6.324 14.441 6.156 14.272C5.99 14.107 5.768 14.14 5.532 14.14C5.53 14.14 5.528 14.14 5.528 14.14C5.167 14.14 4.845 14.23 4.707 14.563C4.569 14.896 4.645 15.278 4.901 15.532ZM13.918 12.83C14.464 12.79 14.998 13.48 15.386 13.434C15.778 13.826 15.993 14.345 15.993 14.899C15.996 15.739 15.495 16.493 14.718 16.816C14.459 16.925 14.187 16.976 13.918 16.977C13.381 16.977 12.854 16.767 12.456 16.371C11.859 15.776 11.682 14.89 12.4 14.11C12.325 13.334 13.76 12.83 13.918 12.83ZM13.292 15.532C13.549 15.788 13.931 15.862 14.262 15.724C14.595 15.584 14.81 15.261 14.809 14.9C14.809 14.663 14.716 14.441 14.549 14.272C14.384 14.109 14.156 14.14 13.924 14.14H13.922C13.591 14.46 13.237 14.229 13.99 14.562C12.961 14.896 13.37 15.278 13.292 15.532Z" fill="#243F4D"/>
</svg>
