<?xml version="1.0" encoding="UTF-8"?>
<svg xmlns="http://www.w3.org/2000/svg" xmlns:xlink="http://www.w3.org/1999/xlink" width="10px" height="10px" viewBox="0 0 10 10" version="1.1">
<g id="surface1">
<path style=" stroke:none;fill-rule:nonzero;fill:rgb(0%,0%,0%);fill-opacity:1;" d="M 9.0625 5 C 9.0625 7.242188 7.242188 9.0625 5 9.0625 C 2.757812 9.0625 0.9375 7.242188 0.9375 5 C 0.9375 2.757812 2.757812 0.9375 5 0.9375 C 7.242188 0.9375 9.0625 2.757812 9.0625 5 Z M 0 5 C 0 7.761719 2.238281 10 5 10 C 7.761719 10 10 7.761719 10 5 C 10 2.238281 7.761719 0 5 0 C 2.238281 0 0 2.238281 0 5 Z M 4.53125 2.34375 L 4.53125 5 C 4.53125 5.15625 4.609375 5.304688 4.742188 5.390625 L 6.617188 6.640625 C 6.828125 6.785156 7.121094 6.726562 7.265625 6.507812 C 7.410156 6.292969 7.351562 6.003906 7.132812 5.859375 L 5.46875 4.75 L 5.46875 2.34375 C 5.46875 2.085938 5.257812 1.875 5 1.875 C 4.742188 1.875 4.53125 2.085938 4.53125 2.34375 Z M 4.53125 2.34375 "/>
</g>
</svg>
