<svg width="19" height="17" viewBox="0 0 19 17" fill="none" xmlns="http://www.w3.org/2000/svg">
<path fill-rule="evenodd" clip-rule="evenodd" d="M9.912 16.244C9.817 16.244 9.722 16.226 9.633 16.188C9.28 16.38 0.983002 12.438 0.983002 5.42801C1.74 2.77801 3.19 0.721008 5.8 0.721008C7.544 0.721008 9.66 1.63901 9.912 3.31001C10.759 1.63901 12.282 0.721008 14.25 0.721008C16.634 0.721008 18.75 2.77801 18.842 5.40401C18.842 12.438 10.545 16.38 10.192 16.188C10.103 16.226 10.8 16.244 9.912 16.244ZM5.8 2.10601C3.954 2.10601 2.457 3.57501 2.392 5.45201C2.393 10.859 8.517 14.114 9.912 14.786C11.308 14.114 17.433 10.856 17.433 5.42801C17.367 3.57501 15.87 2.10601 14.25 2.10601C12.18 2.10601 10.682 3.57501 10.617 5.45201C10.604 5.82501 10.292 6.12101 9.912 6.12101C9.532 6.12101 9.221 5.82501 9.208 5.45201C9.143 3.57501 7.646 2.10601 5.8 2.10601Z" fill="#243F4D"/>
</svg>
