<svg 
 xmlns="http://www.w3.org/2000/svg"
 xmlns:xlink="http://www.w3.org/1999/xlink"
 width="127px" height="127px">
<path fill-rule="evenodd"  opacity="0.4" fill="rgb(163, 187, 200)"
 d="M63.499,0.0 C98.570,0.0 126.999,28.429 126.999,63.499 C126.999,98.570 98.570,126.999 63.499,126.999 C28.429,126.999 0.0,98.570 0.0,63.499 C0.0,28.429 28.429,0.0 63.499,0.0 Z"/>
<path fill-rule="evenodd"  fill="rgb(163, 187, 200)"
 d="M63.0,13.999 C90.61,13.999 111.999,35.937 111.999,62.999 C111.999,90.61 90.61,111.999 63.0,111.999 C35.938,111.999 13.999,90.61 13.999,62.999 C13.999,35.937 35.938,13.999 63.0,13.999 Z"/>
<path fill-rule="evenodd"  fill="rgb(255, 255, 255)"
 d="M73.683,64.739 L57.639,74.536 C57.139,74.842 56.559,74.996 55.977,74.996 C55.497,74.996 55.16,74.891 54.578,74.680 C53.606,74.210 52.999,73.293 52.999,72.294 L52.999,52.699 C52.999,51.701 53.606,50.782 54.578,50.313 C55.549,49.845 56.726,49.899 57.639,50.457 L73.683,60.254 C74.506,60.757 74.999,61.597 74.999,62.496 C74.999,63.395 74.506,64.237 73.683,64.739 Z"/>
</svg>